<svg preserveAspectRatio="none" width="100%" height="100%" overflow="visible" style="display: block;" viewBox="0 0 58.2295 18" fill="none" xmlns="http://www.w3.org/2000/svg">
<g id="Tix lock up 1">
<path id="Union" d="M6.30831 5.62278C6.30833 6.61627 7.10483 7.42304 8.09407 7.44088C9.01755 7.3537 9.74019 6.57657 9.74019 5.63028L15.024 0.139783V4.58405L11.9971 7.44941L14.5345 7.44967C15.3707 7.44981 16.0485 8.12773 16.0485 8.96393C16.0485 9.80024 15.3705 10.4782 14.5343 10.4782L11.9971 10.4779L15.024 13.5398V17.8677L9.74019 12.3948C9.74019 11.3914 8.96912 10.5686 7.98727 10.4854C7.04098 10.6026 6.30837 11.4091 6.30831 12.3871L1.02449 17.8602V13.5321L4.05143 10.4704H1.51424C0.677957 10.4704 3.99333e-08 9.79249 0 8.95618C6.18155e-05 8.12002 0.677837 7.44205 1.51399 7.44191L4.05143 7.44166L1.02449 4.57655V0.132284L6.30831 5.62278Z" fill="var(--fill-0, white)"/>
<g id="TIX">
<path d="M25.7867 9.1669L25.8124 17.8973C25.8124 17.9486 25.7867 17.9743 25.7354 17.9743H25.3759C25.3245 17.9743 25.2989 17.9486 25.2989 17.8973L25.3245 9.1669L25.2989 0.462197H20.1377C20.0863 0.462197 20.0606 0.43652 20.0606 0.385164V0.102711C20.0606 0.0513561 20.0863 0.0256773 20.1377 0.0256773H30.9736C31.025 0.0256773 31.0506 0.0513561 31.0506 0.102711V0.385164C31.0506 0.43652 31.025 0.462197 30.9736 0.462197H25.8381L25.7867 9.1669Z" fill="var(--fill-0, white)"/>
<path d="M38.4711 8.91013L38.5224 17.8973C38.5224 17.9486 38.4967 17.9743 38.4454 17.9743H38.0602C38.0089 17.9743 37.9832 17.9486 37.9832 17.8973L38.0089 8.91013L37.9832 0.102711C37.9832 0.0513561 38.0089 0.0256773 38.0602 0.0256773H38.4454C38.4967 0.0256773 38.5224 0.0513561 38.5224 0.102711L38.4711 8.91013Z" fill="var(--fill-0, white)"/>
<path d="M51.8204 8.8331L46.0173 17.9486C45.9916 17.9743 45.9659 18 45.9146 18H45.5294C45.478 18 45.4524 17.9486 45.478 17.8973L51.538 8.42225L46.1713 0.102711C46.1457 0.0513561 46.1713 0.0256773 46.2227 0.0256773H46.6592C46.7106 0.0256773 46.7362 0.0256773 46.7619 0.0770333L51.8718 8.01141L56.9302 0.0513561C56.9559 0.0256773 56.9816 0 57.033 0H57.3924C57.4695 0 57.4952 0.0513561 57.4438 0.102711L52.1542 8.44793L58.2141 17.8973C58.2398 17.9486 58.2398 17.9743 58.1628 17.9743H57.7519C57.7006 17.9743 57.6749 17.9743 57.6492 17.9486L51.8204 8.8331Z" fill="var(--fill-0, white)"/>
</g>
</g>
</svg>
